<svg xmlns="http://www.w3.org/2000/svg" height="40" viewBox="0 -960 960 960" width="40"><path d="M251.333-275q51.723 0 100.695 11.833 48.972 11.834 95.306 35.501v-416.505Q404.667-672 353.991-686.834q-50.675-14.833-102.452-14.833-37.539 0-73.539 8.666-36 8.667-71.667 22.679v421.655q32-13 69.833-19.666Q214-275 251.333-275Zm263.333 47.334q48.012-23.667 95.015-35.501Q656.684-275 708.53-275q37.47 0 75.97 6t69.167 17v-419.069Q820-687.667 783.119-694.667q-36.882-7-74.589-7-51.846 0-101.021 14.833-49.176 14.834-92.843 42.663v416.505Zm-30.88 129.999q-50.828-37.367-109.288-61.017-58.459-23.65-123.165-23.65-35.488 0-70.027 10.286-34.54 10.285-67.972 23.381-33.417 17.333-66.709-1.16-33.291-18.493-33.291-58.507v-470.587q0-24.412 11-45.679 11-21.267 33-32.4 45.255-20 93.513-29.167 48.257-9.166 98.106-9.166 62.694 0 121.87 16.666Q430-762 481.333-726.333 533-761 590.687-778.167q57.686-17.166 120.386-17.166 49.699 0 97.813 10Q857-775.333 902-757q22 11.133 33.333 32.4 11.333 21.267 11.333 46.267v482.332q0 35.958-33.491 51.479-33.492 15.521-67.175-4.145-32.766-13.762-67.37-23.715-34.605-9.952-70.16-9.952-61.921 0-118.243 24.483-56.321 24.484-106.441 60.184ZM277.333-459.333Z"/></svg>