<svg xmlns="http://www.w3.org/2000/svg" height="40" viewBox="0 -960 960 960" width="40"><path d="M130.667-170.667v-105.999h70V-544q0-94.129 53.333-170.564Q307.334-791 400.667-813.666v-17q0-32.611 23.11-56.306 23.11-23.694 56.125-23.694t56.223 23.694q23.208 23.695 23.208 56.306v17Q652-792.667 706.5-715.891 760.999-639.116 760.999-544v267.334H831v105.999H130.667Zm349.333-326Zm.631 456.666q-38.264 0-64.448-26.633Q390-93.267 390-130.667h181q0 38-26.702 64.333t-63.667 26.333ZM306.666-276.666h347.668v-266.907q0-72.427-50.913-123.594-50.913-51.167-123.501-51.167-72.587 0-122.92 51.286Q306.666-615.763 306.666-544v267.334Z"/></svg>